<svg id="Layer_1" data-name="Layer 1" xmlns="http://www.w3.org/2000/svg" viewBox="0 0 697.2 331.9"><g id="Layer_1-2" data-name="Layer 1-2"><path d="M640.48,96.74h0L519.72,27h0L399.05,96.65h0V235.16l120.67,69.76,120.76-69.67h0ZM519.81,287.42l-105.6-61v-121l105.51-61,105.68,61v121Z" style="fill:#515151"/><path d="M122.29,131c0-22.11-10.63-34.17-32.41-34.17H56.72V235.16H89.88c21.78,0,32.41-12.06,32.41-34.16Zm-21.77,70.93c0,9.88-4.19,13.4-11.06,13.4h-11V116.58h11c7,0,11.06,3.61,11.06,13.4Z" style="fill:#515151"/><polygon points="144.23 235.16 203.52 235.16 203.52 215.4 166 215.4 166 172.86 195.81 172.86 195.81 153.1 166 153.1 166 116.58 203.52 116.58 203.52 96.82 144.23 96.82 144.23 235.16" style="fill:#515151"/><path d="M253.93,94.81c-20.93,0-32,12.65-32,34v74.28c0,21.35,11.06,34,32,34s32-12.65,32-34V183.58h-20.6v21.18c0,9.13-4.35,12.65-10.89,12.65s-10.88-3.52-10.88-12.65V127.47c0-9.13,4.35-12.81,10.88-12.81s10.89,3.77,10.89,12.81v16h20.6V128.81C285.92,107.46,274.87,94.81,253.93,94.81Z" style="fill:#515151"/><polygon points="351.57 147.57 377.45 96.82 355.68 96.82 328.04 155.11 328.04 96.82 306.27 96.82 306.27 235.16 328.04 235.16 328.04 191.03 336.75 173.44 355.09 235.16 377.87 235.16 351.57 147.57" style="fill:#515151"/><path d="M530.69,96.82H516c-4.94,13.48-11.39,17.42-29.81,17.42v15.41h22.69V216.4H486.23v18.76H553V216.4H530.69V96.82Z" style="fill:#515151"/></g></svg>