<?xml version="1.0" standalone="no"?>
<!DOCTYPE svg PUBLIC "-//W3C//DTD SVG 20010904//EN"
 "http://www.w3.org/TR/2001/REC-SVG-20010904/DTD/svg10.dtd">
<svg version="1.0" xmlns="http://www.w3.org/2000/svg"
 width="512.000000pt" height="512.000000pt" viewBox="0 0 512.000000 512.000000"
 preserveAspectRatio="xMidYMid meet">

<g transform="translate(0.000000,512.000000) scale(0.100000,-0.100000)"
fill="#000000" stroke="none">
<path d="M2350 4559 c-291 -27 -583 -122 -820 -267 -444 -273 -760 -690 -904
-1192 -33 -112 -33 -150 -3 -178 23 -22 29 -22 319 -22 275 0 296 1 312 19 9
10 39 69 66 130 78 177 125 261 195 348 293 366 759 553 1225 490 263 -36 490
-139 705 -321 l30 -25 -192 -193 c-187 -188 -223 -234 -223 -290 0 -38 41
-108 78 -133 l37 -25 638 0 c707 0 671 -3 724 67 l28 36 3 626 c3 698 4 686
-64 737 -37 28 -104 41 -151 29 -17 -4 -86 -63 -178 -153 -82 -81 -169 -164
-191 -186 l-42 -38 -82 70 c-183 159 -428 296 -670 376 -283 93 -537 122 -840
95z"/>
<path d="M634 2201 c-17 -10 -42 -34 -55 -53 l-24 -33 -3 -630 -2 -630 22 -45
c38 -74 143 -114 211 -79 12 6 104 92 204 192 l181 180 25 -19 c14 -10 49 -40
78 -65 135 -117 308 -224 489 -302 306 -132 612 -184 939 -159 489 37 883 211
1225 542 271 262 451 565 552 930 30 108 30 140 1 168 -23 22 -29 22 -309 22
-265 0 -286 -1 -302 -19 -9 -10 -39 -69 -66 -130 -78 -177 -125 -261 -195
-348 -198 -248 -470 -412 -795 -480 -127 -26 -382 -24 -515 5 -223 49 -417
143 -586 284 l-61 51 191 191 c185 186 221 232 221 288 0 38 -41 108 -78 133
l-37 25 -640 0 c-611 0 -641 -1 -671 -19z"/>
</g>
</svg>
