<?xml version="1.0" standalone="no"?>
<!DOCTYPE svg PUBLIC "-//W3C//DTD SVG 20010904//EN"
 "http://www.w3.org/TR/2001/REC-SVG-20010904/DTD/svg10.dtd">
<svg version="1.0" xmlns="http://www.w3.org/2000/svg"
 width="512.000000pt" height="512.000000pt" viewBox="0 0 512.000000 512.000000"
 preserveAspectRatio="xMidYMid meet">

<g transform="translate(0.000000,512.000000) scale(0.100000,-0.100000)"
fill="#000000" stroke="none">
<path d="M4130 4670 c-165 -61 -273 -200 -287 -371 -21 -254 202 -477 456
-456 176 15 322 132 375 302 28 88 19 211 -21 297 -44 93 -109 160 -201 205
-68 34 -83 38 -171 40 -77 3 -107 -1 -151 -17z"/>
<path d="M1890 4633 c-249 -9 -488 -43 -626 -89 -318 -106 -582 -369 -687
-684 -77 -234 -97 -495 -97 -1300 0 -805 20 -1066 97 -1300 102 -306 368 -576
669 -678 238 -81 506 -102 1314 -102 927 0 1174 27 1435 154 253 124 460 362
549 630 30 90 60 251 77 406 16 156 24 1308 10 1580 -10 193 -32 406 -46 447
-3 9 -19 5 -57 -12 -97 -44 -172 -58 -293 -53 -171 8 -298 64 -419 184 -120
121 -176 248 -184 419 -5 121 9 196 53 292 13 29 20 55 16 57 -18 12 -254 37
-426 46 -166 9 -1179 11 -1385 3z m1806 -1322 c54 -24 88 -79 88 -140 0 -39
-28 -101 -182 -414 l-181 -369 -78 -77 c-141 -138 -309 -192 -501 -157 -180
32 -326 141 -411 306 -24 47 -58 100 -75 118 -91 98 -241 105 -344 17 -36 -31
-65 -84 -215 -388 -184 -373 -201 -399 -273 -413 -105 -20 -211 84 -188 183 4
15 86 190 183 388 163 330 182 365 239 427 119 126 243 180 417 181 229 2 409
-110 518 -319 55 -108 104 -156 178 -178 65 -20 83 -20 145 -1 101 30 116 51
304 433 94 191 181 358 193 371 48 51 114 63 183 32z"/>
</g>
</svg>
