<?xml version="1.0" standalone="no"?>
<!DOCTYPE svg PUBLIC "-//W3C//DTD SVG 20010904//EN"
 "http://www.w3.org/TR/2001/REC-SVG-20010904/DTD/svg10.dtd">
<svg version="1.0" xmlns="http://www.w3.org/2000/svg"
 width="512.000000pt" height="512.000000pt" viewBox="0 0 512.000000 512.000000"
 preserveAspectRatio="xMidYMid meet">

<g transform="translate(0.000000,512.000000) scale(0.100000,-0.100000)"
fill="#000000" stroke="none">
<path d="M2400 4813 c-68 -8 -206 -43 -269 -67 -222 -88 -438 -280 -560 -497
-158 -283 -171 -677 -32 -974 106 -226 292 -416 516 -526 146 -71 259 -99 430
-106 335 -13 610 97 836 334 201 210 299 455 300 743 0 133 -11 212 -47 336
-91 318 -385 613 -708 713 -138 42 -326 60 -466 44z"/>
<path d="M1505 2619 c-377 -70 -629 -351 -754 -839 -79 -310 -103 -748 -52
-943 40 -152 140 -304 259 -390 68 -51 175 -102 267 -128 l80 -23 1200 -4
c834 -2 1226 0 1285 8 102 13 229 55 308 101 31 19 95 72 142 119 107 107 161
206 191 355 19 89 21 123 16 310 -24 886 -357 1407 -922 1442 -122 7 -133 3
-319 -116 -144 -93 -208 -127 -312 -164 -227 -81 -473 -77 -697 12 -108 43
-135 58 -281 151 -173 111 -195 120 -286 119 -41 -1 -97 -5 -125 -10z"/>
</g>
</svg>
