<?xml version="1.0" standalone="no"?>
<!DOCTYPE svg PUBLIC "-//W3C//DTD SVG 20010904//EN"
 "http://www.w3.org/TR/2001/REC-SVG-20010904/DTD/svg10.dtd">
<svg version="1.0" xmlns="http://www.w3.org/2000/svg"
 width="512.000000pt" height="512.000000pt" viewBox="0 0 512.000000 512.000000"
 preserveAspectRatio="xMidYMid meet">

<g transform="translate(0.000000,512.000000) scale(0.100000,-0.100000)"
fill="#000000" stroke="none">
<path d="M3516 4544 c-265 -48 -500 -229 -621 -477 -103 -213 -114 -436 -32
-642 63 -156 137 -291 260 -475 135 -201 407 -544 479 -605 33 -28 89 -33 132
-13 50 22 368 421 521 653 244 370 325 615 281 848 -36 191 -107 328 -241 463
-209 212 -488 301 -779 248z m307 -517 c78 -36 120 -70 161 -131 152 -228 19
-533 -251 -576 -242 -39 -462 180 -423 422 23 146 129 265 269 305 70 20 177
11 244 -20z"/>
<path d="M1210 3325 c-456 -183 -591 -242 -615 -265 l-30 -30 -3 -1180 c-3
-1305 -7 -1219 61 -1260 18 -11 44 -20 59 -20 15 0 274 99 575 219 l548 219 3
1276 c1 702 -1 1276 -5 1276 -5 -1 -271 -106 -593 -235z"/>
<path d="M2062 2283 l3 -1277 493 -197 492 -197 0 1004 0 1005 -39 53 c-124
167 -264 402 -336 562 l-44 97 -223 89 c-123 49 -251 100 -286 113 l-62 24 2
-1276z"/>
<path d="M4500 2907 c-117 -190 -329 -471 -507 -672 -103 -118 -177 -158 -295
-164 -134 -6 -234 42 -333 159 -27 32 -53 59 -57 59 -5 1 -8 -386 -8 -860 0
-685 3 -860 13 -856 6 3 265 107 575 230 310 124 577 234 595 244 17 10 39 33
49 49 17 29 18 83 16 957 l-3 926 -45 -72z"/>
</g>
</svg>
